<?xml version="1.0" encoding="UTF-8" standalone="no"?>
<!DOCTYPE svg PUBLIC "-//W3C//DTD SVG 1.1//EN"
 "http://www.w3.org/Graphics/SVG/1.1/DTD/svg11.dtd">
<!-- Generated by graphviz version 2.47.0 (20210316.0004)
 -->
<!-- Title: dependencies Pages: 1 -->
<svg width="2100pt" height="211pt"
 viewBox="0.00 0.00 2100.00 211.00" xmlns="http://www.w3.org/2000/svg" xmlns:xlink="http://www.w3.org/1999/xlink">
<g id="graph0" class="graph" transform="scale(1 1) rotate(0) translate(4 207)">
<title>dependencies</title>
<polygon fill="white" stroke="transparent" points="-4,4 -4,-207 2096,-207 2096,4 -4,4"/>
<text text-anchor="start" x="1025.01" y="-42.4" font-family="Times-12" font-weight="bold" font-size="14.00">Legend</text>
<polygon fill="#ffffb3" stroke="transparent" points="812,-10 812,-30 832,-30 832,-10 812,-10"/>
<text text-anchor="start" x="835.63" y="-15.4" font-family="Times-12" font-size="14.00"> &#160;Declarations</text>
<polygon fill="#8dd3c7" stroke="transparent" points="925,-10 925,-30 945,-30 945,-10 925,-10"/>
<text text-anchor="start" x="948.73" y="-15.4" font-family="Times-12" font-size="14.00"> &#160;Module</text>
<polygon fill="#80b1d3" stroke="transparent" points="1011,-10 1011,-30 1031,-30 1031,-10 1011,-10"/>
<text text-anchor="start" x="1034.78" y="-15.4" font-family="Times-12" font-size="14.00"> &#160;Bootstrap</text>
<polygon fill="#fdb462" stroke="transparent" points="1108,-10 1108,-30 1128,-30 1128,-10 1108,-10"/>
<text text-anchor="start" x="1131.67" y="-15.4" font-family="Times-12" font-size="14.00"> &#160;Providers</text>
<polygon fill="#fb8072" stroke="transparent" points="1204,-10 1204,-30 1224,-30 1224,-10 1204,-10"/>
<text text-anchor="start" x="1227.73" y="-15.4" font-family="Times-12" font-size="14.00"> &#160;Exports</text>
<g id="clust1" class="cluster">
<title>cluster_AppModule</title>
<polygon fill="none" stroke="black" stroke-dasharray="1,5" points="8,-70 8,-195 2084,-195 2084,-70 8,-70"/>
</g>
<g id="clust6" class="cluster">
<title>cluster_AppModule_providers</title>
<polygon fill="none" stroke="black" points="16,-78 16,-130 2076,-130 2076,-78 16,-78"/>
</g>
<!-- AccountRepository -->
<g id="node1" class="node">
<title>AccountRepository</title>
<ellipse fill="#fdb462" stroke="black" cx="1982" cy="-104" rx="86.26" ry="18"/>
<text text-anchor="middle" x="1982" y="-99.8" font-family="Times,serif" font-size="14.00">AccountRepository</text>
</g>
<!-- AppModule -->
<g id="node12" class="node">
<title>AppModule</title>
<polygon fill="#8dd3c7" stroke="black" points="1068.66,-187 1065.66,-191 1044.66,-191 1041.66,-187 985.34,-187 985.34,-151 1068.66,-151 1068.66,-187"/>
<text text-anchor="middle" x="1027" y="-164.8" font-family="Times,serif" font-size="14.00">AppModule</text>
</g>
<!-- AccountRepository&#45;&gt;AppModule -->
<g id="edge1" class="edge">
<title>AccountRepository&#45;&gt;AppModule</title>
<path fill="none" stroke="black" d="M1982,-122.09C1982,-145.13 1982,-182 1982,-182 1982,-182 1078.96,-182 1078.96,-182"/>
<polygon fill="black" stroke="black" points="1078.96,-178.5 1068.96,-182 1078.96,-185.5 1078.96,-178.5"/>
</g>
<!-- AccountService -->
<g id="node2" class="node">
<title>AccountService</title>
<ellipse fill="#fdb462" stroke="black" cx="1805" cy="-104" rx="72.91" ry="18"/>
<text text-anchor="middle" x="1805" y="-99.8" font-family="Times,serif" font-size="14.00">AccountService</text>
</g>
<!-- AccountService&#45;&gt;AppModule -->
<g id="edge2" class="edge">
<title>AccountService&#45;&gt;AppModule</title>
<path fill="none" stroke="black" d="M1805,-122.28C1805,-143.32 1805,-175 1805,-175 1805,-175 1078.83,-175 1078.83,-175"/>
<polygon fill="black" stroke="black" points="1078.83,-171.5 1068.83,-175 1078.83,-178.5 1078.83,-171.5"/>
</g>
<!-- AccountTypeRepository -->
<g id="node3" class="node">
<title>AccountTypeRepository</title>
<ellipse fill="#fdb462" stroke="black" cx="1608" cy="-104" rx="105.94" ry="18"/>
<text text-anchor="middle" x="1608" y="-99.8" font-family="Times,serif" font-size="14.00">AccountTypeRepository</text>
</g>
<!-- AccountTypeRepository&#45;&gt;AppModule -->
<g id="edge3" class="edge">
<title>AccountTypeRepository&#45;&gt;AppModule</title>
<path fill="none" stroke="black" d="M1608,-122.11C1608,-141.34 1608,-169 1608,-169 1608,-169 1078.78,-169 1078.78,-169"/>
<polygon fill="black" stroke="black" points="1078.78,-165.5 1068.78,-169 1078.78,-172.5 1078.78,-165.5"/>
</g>
<!-- CustomerRepository -->
<g id="node4" class="node">
<title>CustomerRepository</title>
<ellipse fill="#fdb462" stroke="black" cx="1393" cy="-104" rx="90.93" ry="18"/>
<text text-anchor="middle" x="1393" y="-99.8" font-family="Times,serif" font-size="14.00">CustomerRepository</text>
</g>
<!-- CustomerRepository&#45;&gt;AppModule -->
<g id="edge4" class="edge">
<title>CustomerRepository&#45;&gt;AppModule</title>
<path fill="none" stroke="black" d="M1393,-122.02C1393,-139.37 1393,-163 1393,-163 1393,-163 1078.98,-163 1078.98,-163"/>
<polygon fill="black" stroke="black" points="1078.98,-159.5 1068.98,-163 1078.98,-166.5 1078.98,-159.5"/>
</g>
<!-- CustomerService -->
<g id="node5" class="node">
<title>CustomerService</title>
<ellipse fill="#fdb462" stroke="black" cx="1206" cy="-104" rx="77.58" ry="18"/>
<text text-anchor="middle" x="1206" y="-99.8" font-family="Times,serif" font-size="14.00">CustomerService</text>
</g>
<!-- CustomerService&#45;&gt;AppModule -->
<g id="edge5" class="edge">
<title>CustomerService&#45;&gt;AppModule</title>
<path fill="none" stroke="black" d="M1206,-122.24C1206,-137.57 1206,-157 1206,-157 1206,-157 1078.97,-157 1078.97,-157"/>
<polygon fill="black" stroke="black" points="1078.97,-153.5 1068.97,-157 1078.97,-160.5 1078.97,-153.5"/>
</g>
<!-- DepositRepository -->
<g id="node6" class="node">
<title>DepositRepository</title>
<ellipse fill="#fdb462" stroke="black" cx="1027" cy="-104" rx="83.41" ry="18"/>
<text text-anchor="middle" x="1027" y="-99.8" font-family="Times,serif" font-size="14.00">DepositRepository</text>
</g>
<!-- DepositRepository&#45;&gt;AppModule -->
<g id="edge6" class="edge">
<title>DepositRepository&#45;&gt;AppModule</title>
<path fill="none" stroke="black" d="M1027,-122.11C1027,-122.11 1027,-140.99 1027,-140.99"/>
<polygon fill="black" stroke="black" points="1023.5,-140.99 1027,-150.99 1030.5,-140.99 1023.5,-140.99"/>
</g>
<!-- DepositService -->
<g id="node7" class="node">
<title>DepositService</title>
<ellipse fill="#fdb462" stroke="black" cx="856" cy="-104" rx="70.06" ry="18"/>
<text text-anchor="middle" x="856" y="-99.8" font-family="Times,serif" font-size="14.00">DepositService</text>
</g>
<!-- DepositService&#45;&gt;AppModule -->
<g id="edge7" class="edge">
<title>DepositService&#45;&gt;AppModule</title>
<path fill="none" stroke="black" d="M856,-122.24C856,-137.57 856,-157 856,-157 856,-157 975.17,-157 975.17,-157"/>
<polygon fill="black" stroke="black" points="975.17,-160.5 985.17,-157 975.17,-153.5 975.17,-160.5"/>
</g>
<!-- DocumentTypeRepository -->
<g id="node8" class="node">
<title>DocumentTypeRepository</title>
<ellipse fill="#fdb462" stroke="black" cx="654" cy="-104" rx="113.47" ry="18"/>
<text text-anchor="middle" x="654" y="-99.8" font-family="Times,serif" font-size="14.00">DocumentTypeRepository</text>
</g>
<!-- DocumentTypeRepository&#45;&gt;AppModule -->
<g id="edge8" class="edge">
<title>DocumentTypeRepository&#45;&gt;AppModule</title>
<path fill="none" stroke="black" d="M654,-122.02C654,-139.37 654,-163 654,-163 654,-163 975.3,-163 975.3,-163"/>
<polygon fill="black" stroke="black" points="975.3,-166.5 985.3,-163 975.3,-159.5 975.3,-166.5"/>
</g>
<!-- SecurityService -->
<g id="node9" class="node">
<title>SecurityService</title>
<ellipse fill="#fdb462" stroke="black" cx="450" cy="-104" rx="72.35" ry="18"/>
<text text-anchor="middle" x="450" y="-99.8" font-family="Times,serif" font-size="14.00">SecurityService</text>
</g>
<!-- SecurityService&#45;&gt;AppModule -->
<g id="edge9" class="edge">
<title>SecurityService&#45;&gt;AppModule</title>
<path fill="none" stroke="black" d="M450,-122.11C450,-141.34 450,-169 450,-169 450,-169 975.04,-169 975.04,-169"/>
<polygon fill="black" stroke="black" points="975.04,-172.5 985.04,-169 975.04,-165.5 975.04,-172.5"/>
</g>
<!-- TransferRepository -->
<g id="node10" class="node">
<title>TransferRepository</title>
<ellipse fill="#fdb462" stroke="black" cx="274" cy="-104" rx="86.23" ry="18"/>
<text text-anchor="middle" x="274" y="-99.8" font-family="Times,serif" font-size="14.00">TransferRepository</text>
</g>
<!-- TransferRepository&#45;&gt;AppModule -->
<g id="edge10" class="edge">
<title>TransferRepository&#45;&gt;AppModule</title>
<path fill="none" stroke="black" d="M274,-122.28C274,-143.32 274,-175 274,-175 274,-175 975.17,-175 975.17,-175"/>
<polygon fill="black" stroke="black" points="975.17,-178.5 985.17,-175 975.17,-171.5 975.17,-178.5"/>
</g>
<!-- TransferService -->
<g id="node11" class="node">
<title>TransferService</title>
<ellipse fill="#fdb462" stroke="black" cx="97" cy="-104" rx="72.89" ry="18"/>
<text text-anchor="middle" x="97" y="-99.8" font-family="Times,serif" font-size="14.00">TransferService</text>
</g>
<!-- TransferService&#45;&gt;AppModule -->
<g id="edge11" class="edge">
<title>TransferService&#45;&gt;AppModule</title>
<path fill="none" stroke="black" d="M97,-122.09C97,-145.13 97,-182 97,-182 97,-182 975.23,-182 975.23,-182"/>
<polygon fill="black" stroke="black" points="975.23,-185.5 985.23,-182 975.23,-178.5 975.23,-185.5"/>
</g>
</g>
</svg>
